<svg xmlns="http://www.w3.org/2000/svg" xmlns:xlink="http://www.w3.org/1999/xlink" id="Layer_1" x="0" y="0" version="1.1" viewBox="0 0 1500 500" xml:space="preserve" style="enable-background:new 0 0 1500 500"><style type="text/css">.st1{fill:#ffd94a}.st2{fill:#3771a2}</style><g><path d="M123.34,605.23h115.2c62.21,0,100.67,28.8,90.17,95.23c-10.8,68.35-52.4,98.31-118.06,98.31h-42.62l-15.17,96 H77.6L123.34,605.23z M177.62,738.1h12.67c27.26,0,54.14,0,59.73-35.33c5.76-36.48-19.14-36.86-48.32-36.86h-12.67L177.62,738.1z" class="st1" transform="translate(0, -500)"/><path d="M326.09,605.23h90.24l41.71,78.72l66.58-78.72h90.24L484.33,755.76l-21.96,139.01H387.1l21.96-139.01 L326.09,605.23z" class="st1" transform="translate(0, -500)"/><path d="M586.39,894.77l45.74-289.54h107.52c51.46,0,82.86,19.97,74.13,75.26c-4.13,26.11-15.91,47.23-41.21,59.14 l-0.12,0.77c40.62,5.38,53.86,33.41,47.49,73.73c-9.59,60.67-64.58,80.64-117.57,80.64H586.39z M670.76,837.17h9.6 c22.27,0,59.72,1.15,64.76-30.72c5.52-34.94-32.27-31.49-56.85-31.49h-7.68L670.76,837.17z M689.44,718.9h8.45 c19.97,0,41.25-3.46,45.13-28.03c4.19-26.5-19-28.03-39.35-28.03h-5.38L689.44,718.9z" class="st2" transform="translate(0, -500)"/><path d="M1156.54,744.62c-14.8,93.7-92.44,159.74-185.37,159.74s-149.69-66.05-134.89-159.74 c13.83-87.55,100.34-148.99,183.67-148.99C1103.28,595.63,1170.37,657.07,1156.54,744.62z M914.56,745.01 c-7.89,49.92,23.21,86.4,68.14,86.4c44.93,0,87.56-36.48,95.44-86.4c6.31-39.94-24.79-76.42-69.72-76.42 C963.5,668.59,920.87,705.07,914.56,745.01z" class="st2" transform="translate(0, -500)"/><path d="M1133.63,605.23h90.24l41.71,78.72l66.58-78.72h90.24l-130.54,150.53l-21.96,139.01h-75.26l21.96-139.01 L1133.63,605.23z" class="st2" transform="translate(0, -500)"/></g></svg>